<svg width="747" height="204" viewBox="0 0 747 204" fill="none" xmlns="http://www.w3.org/2000/svg">
<path d="M118.293 166L97 187.293L75.707 166L97 144.707L118.293 166ZM96.293 144L75 165.293L53.707 144L75 122.707L96.293 144ZM140.293 144L119 165.293L97.707 144L119 122.707L140.293 144ZM74.293 122L53 143.293L31.707 122L53 100.707L74.293 122ZM162.293 122L141 143.293L119.707 122L141 100.707L162.293 122ZM52.293 100L31 121.293L9.70703 100L31 78.707L52.293 100ZM184.293 100L163 121.293L141.707 100L163 78.707L184.293 100ZM74.293 78L53 99.293L31.707 78L53 56.707L74.293 78ZM118.293 78L97 99.293L75.707 78L97 56.707L118.293 78ZM162.293 78L141 99.293L119.707 78L141 56.707L162.293 78ZM96.293 56L75 77.293L53.707 56L75 34.707L96.293 56ZM140.293 56L119 77.293L97.707 56L119 34.707L140.293 56Z" fill="#0074CE" stroke="#0074CE"/>
<mask id="path-2-outside-1_1402_8" maskUnits="userSpaceOnUse" x="216" y="52" width="520" height="102" fill="black">
<rect fill="white" x="216" y="52" width="520" height="102"/>
<path d="M301.227 90.5H281.318C280.955 87.9242 280.212 85.6364 279.091 83.6364C277.97 81.6061 276.53 79.8788 274.773 78.4545C273.015 77.0303 270.985 75.9394 268.682 75.1818C266.409 74.4242 263.939 74.0455 261.273 74.0455C256.455 74.0455 252.258 75.2424 248.682 77.6364C245.106 80 242.333 83.4545 240.364 88C238.394 92.5151 237.409 98 237.409 104.455C237.409 111.091 238.394 116.667 240.364 121.182C242.364 125.697 245.152 129.106 248.727 131.409C252.303 133.712 256.439 134.864 261.136 134.864C263.773 134.864 266.212 134.515 268.455 133.818C270.727 133.121 272.742 132.106 274.5 130.773C276.258 129.409 277.712 127.758 278.864 125.818C280.045 123.879 280.864 121.667 281.318 119.182L301.227 119.273C300.712 123.545 299.424 127.667 297.364 131.636C295.333 135.576 292.591 139.106 289.136 142.227C285.712 145.318 281.621 147.773 276.864 149.591C272.136 151.379 266.788 152.273 260.818 152.273C252.515 152.273 245.091 150.394 238.545 146.636C232.03 142.879 226.879 137.439 223.091 130.318C219.333 123.197 217.455 114.576 217.455 104.455C217.455 94.303 219.364 85.6667 223.182 78.5455C227 71.4242 232.182 66 238.727 62.2727C245.273 58.5151 252.636 56.6364 260.818 56.6364C266.212 56.6364 271.212 57.3939 275.818 58.9091C280.455 60.4242 284.561 62.6364 288.136 65.5454C291.712 68.4242 294.621 71.9545 296.864 76.1364C299.136 80.3182 300.591 85.1061 301.227 90.5ZM334.341 110.636V151H314.977V57.9091H333.795V93.5H334.614C336.189 89.3788 338.735 86.1515 342.25 83.8182C345.765 81.4545 350.174 80.2727 355.477 80.2727C360.326 80.2727 364.553 81.3333 368.159 83.4545C371.795 85.5455 374.614 88.5606 376.614 92.5C378.644 96.4091 379.644 101.091 379.614 106.545V151H360.25V110C360.28 105.697 359.189 102.348 356.977 99.9545C354.795 97.5606 351.735 96.3636 347.795 96.3636C345.159 96.3636 342.826 96.9242 340.795 98.0455C338.795 99.1667 337.22 100.803 336.068 102.955C334.947 105.076 334.371 107.636 334.341 110.636ZM426.67 152.364C419.489 152.364 413.307 150.909 408.125 148C402.973 145.061 399.004 140.909 396.216 135.545C393.428 130.152 392.034 123.773 392.034 116.409C392.034 109.227 393.428 102.924 396.216 97.5C399.004 92.0758 402.928 87.8485 407.989 84.8182C413.08 81.7879 419.049 80.2727 425.898 80.2727C430.504 80.2727 434.792 81.0152 438.761 82.5C442.761 83.9545 446.246 86.1515 449.216 89.0909C452.216 92.0303 454.549 95.7273 456.216 100.182C457.883 104.606 458.716 109.788 458.716 115.727V121.045H399.761V109.045H440.489C440.489 106.258 439.883 103.788 438.67 101.636C437.458 99.4848 435.777 97.803 433.625 96.5909C431.504 95.3485 429.034 94.7273 426.216 94.7273C423.277 94.7273 420.67 95.4091 418.398 96.7727C416.155 98.1061 414.398 99.9091 413.125 102.182C411.852 104.424 411.201 106.924 411.17 109.682V121.091C411.17 124.545 411.807 127.53 413.08 130.045C414.383 132.561 416.216 134.5 418.58 135.864C420.943 137.227 423.746 137.909 426.989 137.909C429.14 137.909 431.11 137.606 432.898 137C434.686 136.394 436.216 135.485 437.489 134.273C438.761 133.061 439.731 131.576 440.398 129.818L458.307 131C457.398 135.303 455.534 139.061 452.716 142.273C449.928 145.455 446.322 147.939 441.898 149.727C437.504 151.485 432.428 152.364 426.67 152.364ZM502.898 152.364C495.746 152.364 489.595 150.848 484.443 147.818C479.322 144.758 475.383 140.515 472.625 135.091C469.898 129.667 468.534 123.424 468.534 116.364C468.534 109.212 469.913 102.939 472.67 97.5455C475.458 92.1212 479.413 87.8939 484.534 84.8636C489.655 81.803 495.746 80.2727 502.807 80.2727C508.898 80.2727 514.231 81.3788 518.807 83.5909C523.383 85.803 527.004 88.9091 529.67 92.9091C532.337 96.9091 533.807 101.606 534.08 107H515.807C515.292 103.515 513.928 100.712 511.716 98.5909C509.534 96.4394 506.67 95.3636 503.125 95.3636C500.125 95.3636 497.504 96.1818 495.261 97.8182C493.049 99.4242 491.322 101.773 490.08 104.864C488.837 107.955 488.216 111.697 488.216 116.091C488.216 120.545 488.822 124.333 490.034 127.455C491.277 130.576 493.019 132.955 495.261 134.591C497.504 136.227 500.125 137.045 503.125 137.045C505.337 137.045 507.322 136.591 509.08 135.682C510.867 134.773 512.337 133.455 513.489 131.727C514.67 129.97 515.443 127.864 515.807 125.409H534.08C533.777 130.742 532.322 135.439 529.716 139.5C527.14 143.53 523.58 146.682 519.034 148.955C514.489 151.227 509.11 152.364 502.898 152.364ZM564.023 130.909L564.068 107.682H566.886L589.25 81.1818H611.477L581.432 116.273H576.841L564.023 130.909ZM546.477 151V57.9091H565.841V151H546.477ZM590.114 151L569.568 120.591L582.477 106.909L612.795 151H590.114ZM658.523 81.1818V95.7273H615.432V81.1818H658.523ZM625.295 151V76.1364C625.295 71.0758 626.28 66.8788 628.25 63.5454C630.25 60.2121 632.977 57.7121 636.432 56.0454C639.886 54.3788 643.811 53.5454 648.205 53.5454C651.174 53.5454 653.886 53.7727 656.341 54.2273C658.826 54.6818 660.674 55.0909 661.886 55.4545L658.432 70C657.674 69.7576 656.735 69.5303 655.614 69.3182C654.523 69.1061 653.402 69 652.25 69C649.402 69 647.417 69.6667 646.295 71C645.174 72.303 644.614 74.1364 644.614 76.5V151H625.295ZM715.125 121.273V81.1818H734.489V151H715.898V138.318H715.17C713.595 142.409 710.973 145.697 707.307 148.182C703.67 150.667 699.231 151.909 693.989 151.909C689.322 151.909 685.216 150.848 681.67 148.727C678.125 146.606 675.352 143.591 673.352 139.682C671.383 135.773 670.383 131.091 670.352 125.636V81.1818H689.716V122.182C689.746 126.303 690.852 129.561 693.034 131.955C695.216 134.348 698.14 135.545 701.807 135.545C704.14 135.545 706.322 135.015 708.352 133.955C710.383 132.864 712.019 131.258 713.261 129.136C714.534 127.015 715.155 124.394 715.125 121.273Z"/>
</mask>
<path d="M301.227 90.5H281.318C280.955 87.9242 280.212 85.6364 279.091 83.6364C277.97 81.6061 276.53 79.8788 274.773 78.4545C273.015 77.0303 270.985 75.9394 268.682 75.1818C266.409 74.4242 263.939 74.0455 261.273 74.0455C256.455 74.0455 252.258 75.2424 248.682 77.6364C245.106 80 242.333 83.4545 240.364 88C238.394 92.5151 237.409 98 237.409 104.455C237.409 111.091 238.394 116.667 240.364 121.182C242.364 125.697 245.152 129.106 248.727 131.409C252.303 133.712 256.439 134.864 261.136 134.864C263.773 134.864 266.212 134.515 268.455 133.818C270.727 133.121 272.742 132.106 274.5 130.773C276.258 129.409 277.712 127.758 278.864 125.818C280.045 123.879 280.864 121.667 281.318 119.182L301.227 119.273C300.712 123.545 299.424 127.667 297.364 131.636C295.333 135.576 292.591 139.106 289.136 142.227C285.712 145.318 281.621 147.773 276.864 149.591C272.136 151.379 266.788 152.273 260.818 152.273C252.515 152.273 245.091 150.394 238.545 146.636C232.03 142.879 226.879 137.439 223.091 130.318C219.333 123.197 217.455 114.576 217.455 104.455C217.455 94.303 219.364 85.6667 223.182 78.5455C227 71.4242 232.182 66 238.727 62.2727C245.273 58.5151 252.636 56.6364 260.818 56.6364C266.212 56.6364 271.212 57.3939 275.818 58.9091C280.455 60.4242 284.561 62.6364 288.136 65.5454C291.712 68.4242 294.621 71.9545 296.864 76.1364C299.136 80.3182 300.591 85.1061 301.227 90.5ZM334.341 110.636V151H314.977V57.9091H333.795V93.5H334.614C336.189 89.3788 338.735 86.1515 342.25 83.8182C345.765 81.4545 350.174 80.2727 355.477 80.2727C360.326 80.2727 364.553 81.3333 368.159 83.4545C371.795 85.5455 374.614 88.5606 376.614 92.5C378.644 96.4091 379.644 101.091 379.614 106.545V151H360.25V110C360.28 105.697 359.189 102.348 356.977 99.9545C354.795 97.5606 351.735 96.3636 347.795 96.3636C345.159 96.3636 342.826 96.9242 340.795 98.0455C338.795 99.1667 337.22 100.803 336.068 102.955C334.947 105.076 334.371 107.636 334.341 110.636ZM426.67 152.364C419.489 152.364 413.307 150.909 408.125 148C402.973 145.061 399.004 140.909 396.216 135.545C393.428 130.152 392.034 123.773 392.034 116.409C392.034 109.227 393.428 102.924 396.216 97.5C399.004 92.0758 402.928 87.8485 407.989 84.8182C413.08 81.7879 419.049 80.2727 425.898 80.2727C430.504 80.2727 434.792 81.0152 438.761 82.5C442.761 83.9545 446.246 86.1515 449.216 89.0909C452.216 92.0303 454.549 95.7273 456.216 100.182C457.883 104.606 458.716 109.788 458.716 115.727V121.045H399.761V109.045H440.489C440.489 106.258 439.883 103.788 438.67 101.636C437.458 99.4848 435.777 97.803 433.625 96.5909C431.504 95.3485 429.034 94.7273 426.216 94.7273C423.277 94.7273 420.67 95.4091 418.398 96.7727C416.155 98.1061 414.398 99.9091 413.125 102.182C411.852 104.424 411.201 106.924 411.17 109.682V121.091C411.17 124.545 411.807 127.53 413.08 130.045C414.383 132.561 416.216 134.5 418.58 135.864C420.943 137.227 423.746 137.909 426.989 137.909C429.14 137.909 431.11 137.606 432.898 137C434.686 136.394 436.216 135.485 437.489 134.273C438.761 133.061 439.731 131.576 440.398 129.818L458.307 131C457.398 135.303 455.534 139.061 452.716 142.273C449.928 145.455 446.322 147.939 441.898 149.727C437.504 151.485 432.428 152.364 426.67 152.364ZM502.898 152.364C495.746 152.364 489.595 150.848 484.443 147.818C479.322 144.758 475.383 140.515 472.625 135.091C469.898 129.667 468.534 123.424 468.534 116.364C468.534 109.212 469.913 102.939 472.67 97.5455C475.458 92.1212 479.413 87.8939 484.534 84.8636C489.655 81.803 495.746 80.2727 502.807 80.2727C508.898 80.2727 514.231 81.3788 518.807 83.5909C523.383 85.803 527.004 88.9091 529.67 92.9091C532.337 96.9091 533.807 101.606 534.08 107H515.807C515.292 103.515 513.928 100.712 511.716 98.5909C509.534 96.4394 506.67 95.3636 503.125 95.3636C500.125 95.3636 497.504 96.1818 495.261 97.8182C493.049 99.4242 491.322 101.773 490.08 104.864C488.837 107.955 488.216 111.697 488.216 116.091C488.216 120.545 488.822 124.333 490.034 127.455C491.277 130.576 493.019 132.955 495.261 134.591C497.504 136.227 500.125 137.045 503.125 137.045C505.337 137.045 507.322 136.591 509.08 135.682C510.867 134.773 512.337 133.455 513.489 131.727C514.67 129.97 515.443 127.864 515.807 125.409H534.08C533.777 130.742 532.322 135.439 529.716 139.5C527.14 143.53 523.58 146.682 519.034 148.955C514.489 151.227 509.11 152.364 502.898 152.364ZM564.023 130.909L564.068 107.682H566.886L589.25 81.1818H611.477L581.432 116.273H576.841L564.023 130.909ZM546.477 151V57.9091H565.841V151H546.477ZM590.114 151L569.568 120.591L582.477 106.909L612.795 151H590.114ZM658.523 81.1818V95.7273H615.432V81.1818H658.523ZM625.295 151V76.1364C625.295 71.0758 626.28 66.8788 628.25 63.5454C630.25 60.2121 632.977 57.7121 636.432 56.0454C639.886 54.3788 643.811 53.5454 648.205 53.5454C651.174 53.5454 653.886 53.7727 656.341 54.2273C658.826 54.6818 660.674 55.0909 661.886 55.4545L658.432 70C657.674 69.7576 656.735 69.5303 655.614 69.3182C654.523 69.1061 653.402 69 652.25 69C649.402 69 647.417 69.6667 646.295 71C645.174 72.303 644.614 74.1364 644.614 76.5V151H625.295ZM715.125 121.273V81.1818H734.489V151H715.898V138.318H715.17C713.595 142.409 710.973 145.697 707.307 148.182C703.67 150.667 699.231 151.909 693.989 151.909C689.322 151.909 685.216 150.848 681.67 148.727C678.125 146.606 675.352 143.591 673.352 139.682C671.383 135.773 670.383 131.091 670.352 125.636V81.1818H689.716V122.182C689.746 126.303 690.852 129.561 693.034 131.955C695.216 134.348 698.14 135.545 701.807 135.545C704.14 135.545 706.322 135.015 708.352 133.955C710.383 132.864 712.019 131.258 713.261 129.136C714.534 127.015 715.155 124.394 715.125 121.273Z" fill="black"/>
<path d="M301.227 90.5V91.5H302.352L302.22 90.3828L301.227 90.5ZM281.318 90.5L280.328 90.6398L280.449 91.5H281.318V90.5ZM279.091 83.6364L278.216 84.1198L278.219 84.1254L279.091 83.6364ZM274.773 78.4545L274.143 79.2315L274.143 79.2315L274.773 78.4545ZM268.682 75.1818L268.366 76.1305L268.369 76.1317L268.682 75.1818ZM248.682 77.6364L249.233 78.4706L249.238 78.4673L248.682 77.6364ZM240.364 88L241.28 88.3999L241.281 88.3976L240.364 88ZM240.364 121.182L239.447 121.582L239.449 121.587L240.364 121.182ZM248.727 131.409L248.186 132.25L248.186 132.25L248.727 131.409ZM268.455 133.818L268.161 132.862L268.158 132.863L268.455 133.818ZM274.5 130.773L275.104 131.569L275.113 131.563L274.5 130.773ZM278.864 125.818L278.01 125.298L278.004 125.308L278.864 125.818ZM281.318 119.182L281.323 118.182L280.485 118.178L280.335 119.002L281.318 119.182ZM301.227 119.273L302.22 119.392L302.354 118.278L301.232 118.273L301.227 119.273ZM297.364 131.636L296.476 131.176L296.475 131.178L297.364 131.636ZM289.136 142.227L289.806 142.97L289.807 142.969L289.136 142.227ZM276.864 149.591L277.217 150.526L277.221 150.525L276.864 149.591ZM238.545 146.636L238.046 147.503L238.048 147.504L238.545 146.636ZM223.091 130.318L222.206 130.785L222.208 130.788L223.091 130.318ZM223.182 78.5455L224.063 79.018L224.063 79.018L223.182 78.5455ZM238.727 62.2727L239.222 63.1417L239.225 63.14L238.727 62.2727ZM275.818 58.9091L275.506 59.859L275.508 59.8596L275.818 58.9091ZM288.136 65.5454L287.505 66.3212L287.509 66.3244L288.136 65.5454ZM296.864 76.1364L295.982 76.6089L295.985 76.6139L296.864 76.1364ZM301.227 90.5V89.5H281.318V90.5V91.5H301.227V90.5ZM281.318 90.5L282.308 90.3602C281.93 87.6781 281.153 85.269 279.963 83.1474L279.091 83.6364L278.219 84.1254C279.272 86.0037 279.979 88.1704 280.328 90.6398L281.318 90.5ZM279.091 83.6364L279.966 83.1529C278.784 81.0128 277.263 79.185 275.402 77.6776L274.773 78.4545L274.143 79.2315C275.798 80.5726 277.155 82.1993 278.216 84.1198L279.091 83.6364ZM274.773 78.4545L275.402 77.6776C273.544 76.1716 271.404 75.0247 268.994 74.2319L268.682 75.1818L268.369 76.1317C270.565 76.8541 272.486 77.889 274.143 79.2315L274.773 78.4545ZM268.682 75.1818L268.998 74.2331C266.613 73.438 264.035 73.0455 261.273 73.0455V74.0455V75.0455C263.844 75.0455 266.206 75.4105 268.366 76.1305L268.682 75.1818ZM261.273 74.0455V73.0455C256.281 73.0455 251.885 74.2883 248.125 76.8054L248.682 77.6364L249.238 78.4673C252.63 76.1965 256.628 75.0455 261.273 75.0455V74.0455ZM248.682 77.6364L248.13 76.8021C244.369 79.2886 241.481 82.9074 239.446 87.6024L240.364 88L241.281 88.3976C243.186 84.0017 245.843 80.7114 249.233 78.4706L248.682 77.6364ZM240.364 88L239.447 87.6001C237.408 92.274 236.409 97.9031 236.409 104.455H237.409H238.409C238.409 98.0969 239.38 92.7563 241.28 88.3999L240.364 88ZM237.409 104.455H236.409C236.409 111.183 237.407 116.905 239.447 121.582L240.364 121.182L241.28 120.782C239.381 116.429 238.409 110.998 238.409 104.455H237.409ZM240.364 121.182L239.449 121.587C241.515 126.251 244.421 129.825 248.186 132.25L248.727 131.409L249.269 130.568C245.882 128.387 243.212 125.143 241.278 120.777L240.364 121.182ZM248.727 131.409L248.186 132.25C251.94 134.668 256.268 135.864 261.136 135.864V134.864V133.864C256.611 133.864 252.666 132.757 249.269 130.568L248.727 131.409ZM261.136 134.864V135.864C263.861 135.864 266.402 135.503 268.751 134.773L268.455 133.818L268.158 132.863C266.022 133.527 263.684 133.864 261.136 133.864V134.864ZM268.455 133.818L268.748 134.774C271.124 134.046 273.246 132.979 275.104 131.569L274.5 130.773L273.896 129.976C272.239 131.233 270.331 132.197 268.161 132.862L268.455 133.818ZM274.5 130.773L275.113 131.563C276.971 130.121 278.509 128.374 279.723 126.329L278.864 125.818L278.004 125.308C276.915 127.141 275.544 128.697 273.887 129.983L274.5 130.773ZM278.864 125.818L279.718 126.339C280.97 124.283 281.828 121.954 282.302 119.362L281.318 119.182L280.335 119.002C279.9 121.38 279.121 123.474 278.01 125.298L278.864 125.818ZM281.318 119.182L281.314 120.182L301.223 120.273L301.227 119.273L301.232 118.273L281.323 118.182L281.318 119.182ZM301.227 119.273L300.234 119.153C299.734 123.302 298.484 127.308 296.476 131.176L297.364 131.636L298.251 132.097C300.365 128.025 301.69 123.789 302.22 119.392L301.227 119.273ZM297.364 131.636L296.475 131.178C294.502 135.005 291.836 138.441 288.466 141.485L289.136 142.227L289.807 142.969C293.346 139.771 296.164 136.146 298.253 132.094L297.364 131.636ZM289.136 142.227L288.466 141.485C285.143 144.485 281.161 146.878 276.507 148.657L276.864 149.591L277.221 150.525C282.082 148.667 286.281 146.151 289.806 142.97L289.136 142.227ZM276.864 149.591L276.51 148.656C271.914 150.394 266.688 151.273 260.818 151.273V152.273V153.273C266.887 153.273 272.359 152.364 277.217 150.526L276.864 149.591ZM260.818 152.273V151.273C252.672 151.273 245.422 149.431 239.043 145.769L238.545 146.636L238.048 147.504C244.759 151.357 252.358 153.273 260.818 153.273V152.273ZM238.545 146.636L239.045 145.77C232.704 142.113 227.68 136.817 223.974 129.849L223.091 130.318L222.208 130.788C226.077 138.062 231.356 143.645 238.046 147.503L238.545 146.636ZM223.091 130.318L223.975 129.852C220.311 122.906 218.455 114.454 218.455 104.455H217.455H216.455C216.455 114.697 218.356 123.488 222.206 130.785L223.091 130.318ZM217.455 104.455H218.455C218.455 94.4265 220.34 85.9613 224.063 79.018L223.182 78.5455L222.301 78.0729C218.387 85.372 216.455 94.1796 216.455 104.455H217.455ZM223.182 78.5455L224.063 79.018C227.799 72.0501 232.852 66.769 239.222 63.1417L238.727 62.2727L238.232 61.4037C231.511 65.231 226.201 70.7984 222.301 78.0729L223.182 78.5455ZM238.727 62.2727L239.225 63.14C245.606 59.4766 252.796 57.6364 260.818 57.6364V56.6364V55.6364C252.477 55.6364 244.939 57.5537 238.229 61.4055L238.727 62.2727ZM260.818 56.6364V57.6364C266.118 57.6364 271.011 58.3805 275.506 59.859L275.818 58.9091L276.131 57.9592C271.413 56.4073 266.306 55.6364 260.818 55.6364V56.6364ZM275.818 58.9091L275.508 59.8596C280.034 61.3389 284.03 63.4939 287.505 66.3212L288.136 65.5454L288.767 64.7697C285.091 61.7788 280.875 59.5096 276.129 57.9586L275.818 58.9091ZM288.136 65.5454L287.509 66.3244C290.977 69.1163 293.801 72.5412 295.982 76.6089L296.864 76.1364L297.745 75.6638C295.441 71.3679 292.447 67.7322 288.763 64.7665L288.136 65.5454ZM296.864 76.1364L295.985 76.6139C298.189 80.6693 299.611 85.3318 300.234 90.6172L301.227 90.5L302.22 90.3828C301.571 84.8803 300.084 79.9671 297.742 75.6588L296.864 76.1364ZM334.341 110.636L333.341 110.626V110.636H334.341ZM334.341 151V152H335.341V151H334.341ZM314.977 151H313.977V152H314.977V151ZM314.977 57.9091V56.9091H313.977V57.9091H314.977ZM333.795 57.9091H334.795V56.9091H333.795V57.9091ZM333.795 93.5H332.795V94.5H333.795V93.5ZM334.614 93.5V94.5H335.302L335.548 93.8571L334.614 93.5ZM342.25 83.8182L342.803 84.6513L342.808 84.648L342.25 83.8182ZM368.159 83.4545L367.652 84.3165L367.661 84.3215L368.159 83.4545ZM376.614 92.5L375.722 92.9527L375.726 92.9609L376.614 92.5ZM379.614 106.545L378.614 106.54V106.545H379.614ZM379.614 151V152H380.614V151H379.614ZM360.25 151H359.25V152H360.25V151ZM360.25 110L359.25 109.993V110H360.25ZM356.977 99.9545L356.238 100.628L356.243 100.633L356.977 99.9545ZM340.795 98.0455L340.312 97.17L340.306 97.1732L340.795 98.0455ZM336.068 102.955L335.187 102.483L335.184 102.487L336.068 102.955ZM334.341 110.636H333.341V151H334.341H335.341V110.636H334.341ZM334.341 151V150H314.977V151V152H334.341V151ZM314.977 151H315.977V57.9091H314.977H313.977V151H314.977ZM314.977 57.9091V58.9091H333.795V57.9091V56.9091H314.977V57.9091ZM333.795 57.9091H332.795V93.5H333.795H334.795V57.9091H333.795ZM333.795 93.5V94.5H334.614V93.5V92.5H333.795V93.5ZM334.614 93.5L335.548 93.8571C337.053 89.9209 339.47 86.864 342.803 84.6513L342.25 83.8182L341.697 82.985C338 85.439 335.326 88.8367 333.68 93.1429L334.614 93.5ZM342.25 83.8182L342.808 84.648C346.121 82.4203 350.323 81.2727 355.477 81.2727V80.2727V79.2727C350.026 79.2727 345.409 80.4887 341.692 82.9883L342.25 83.8182ZM355.477 80.2727V81.2727C360.176 81.2727 364.223 82.2992 367.652 84.3165L368.159 83.4545L368.666 82.5926C364.883 80.3675 360.475 79.2727 355.477 79.2727V80.2727ZM368.159 83.4545L367.661 84.3215C371.119 86.3102 373.805 89.1769 375.722 92.9527L376.614 92.5L377.505 92.0473C375.422 87.9443 372.472 84.7807 368.658 82.5876L368.159 83.4545ZM376.614 92.5L375.726 92.9609C377.666 96.6956 378.643 101.21 378.614 106.54L379.614 106.545L380.614 106.551C380.645 100.972 379.622 96.1226 377.501 92.0391L376.614 92.5ZM379.614 106.545H378.614V151H379.614H380.614V106.545H379.614ZM379.614 151V150H360.25V151V152H379.614V151ZM360.25 151H361.25V110H360.25H359.25V151H360.25ZM360.25 110L361.25 110.007C361.281 105.534 360.146 101.91 357.712 99.2759L356.977 99.9545L356.243 100.633C358.233 102.787 359.279 105.86 359.25 109.993L360.25 110ZM356.977 99.9545L357.716 99.2809C355.305 96.635 351.95 95.3636 347.795 95.3636V96.3636V97.3636C351.519 97.3636 354.286 98.4862 356.238 100.628L356.977 99.9545ZM347.795 96.3636V95.3636C345.013 95.3636 342.51 95.9565 340.312 97.1701L340.795 98.0455L341.279 98.9208C343.142 97.892 345.305 97.3636 347.795 97.3636V96.3636ZM340.795 98.0455L340.306 97.1732C338.129 98.3938 336.422 100.174 335.187 102.483L336.068 102.955L336.95 103.426C338.017 101.432 339.462 99.9396 341.284 98.9177L340.795 98.0455ZM336.068 102.955L335.184 102.487C333.972 104.78 333.372 107.506 333.341 110.626L334.341 110.636L335.341 110.646C335.37 107.767 335.922 105.371 336.952 103.422L336.068 102.955ZM408.125 148L407.629 148.869L407.635 148.872L408.125 148ZM396.216 135.545L395.328 136.005L395.329 136.007L396.216 135.545ZM396.216 97.5L395.327 97.0429L395.327 97.0429L396.216 97.5ZM407.989 84.8182L407.477 83.9589L407.475 83.9602L407.989 84.8182ZM438.761 82.5L438.411 83.4367L438.42 83.4398L438.761 82.5ZM449.216 89.0909L448.512 89.8016L448.516 89.8052L449.216 89.0909ZM456.216 100.182L455.279 100.532L455.28 100.534L456.216 100.182ZM458.716 121.045V122.045H459.716V121.045H458.716ZM399.761 121.045H398.761V122.045H399.761V121.045ZM399.761 109.045V108.045H398.761V109.045H399.761ZM440.489 109.045V110.045H441.489V109.045H440.489ZM438.67 101.636L437.799 102.127L437.799 102.127L438.67 101.636ZM433.625 96.5909L433.12 97.4538L433.127 97.458L433.134 97.4622L433.625 96.5909ZM418.398 96.7727L418.909 97.6323L418.912 97.6302L418.398 96.7727ZM413.125 102.182L413.995 102.675L413.998 102.67L413.125 102.182ZM411.17 109.682L410.17 109.671V109.682H411.17ZM413.08 130.045L412.187 130.497L412.192 130.505L413.08 130.045ZM432.898 137L432.577 136.053L432.577 136.053L432.898 137ZM437.489 134.273L436.799 133.549L436.799 133.549L437.489 134.273ZM440.398 129.818L440.464 128.82L439.725 128.772L439.463 129.464L440.398 129.818ZM458.307 131L459.285 131.207L459.524 130.078L458.373 130.002L458.307 131ZM452.716 142.273L451.964 141.613L451.964 141.614L452.716 142.273ZM441.898 149.727L442.269 150.656L442.272 150.654L441.898 149.727ZM426.67 152.364V151.364C419.624 151.364 413.619 149.937 408.615 147.128L408.125 148L407.635 148.872C412.995 151.881 419.353 153.364 426.67 153.364V152.364ZM408.125 148L408.621 147.131C403.639 144.289 399.804 140.281 397.103 135.084L396.216 135.545L395.329 136.007C398.203 141.537 402.308 145.832 407.629 148.869L408.125 148ZM396.216 135.545L397.104 135.086C394.404 129.861 393.034 123.647 393.034 116.409H392.034H391.034C391.034 123.899 392.452 130.442 395.328 136.005L396.216 135.545ZM392.034 116.409H393.034C393.034 109.358 394.402 103.217 397.105 97.9571L396.216 97.5L395.327 97.0429C392.454 102.632 391.034 109.096 391.034 116.409H392.034ZM396.216 97.5L397.105 97.9571C399.811 92.693 403.608 88.6071 408.502 85.6761L407.989 84.8182L407.475 83.9602C402.248 87.0898 398.197 91.4585 395.327 97.0429L396.216 97.5ZM407.989 84.8182L408.5 85.6775C413.414 82.7528 419.201 81.2727 425.898 81.2727V80.2727V79.2727C418.898 79.2727 412.746 80.8229 407.477 83.9589L407.989 84.8182ZM425.898 80.2727V81.2727C430.395 81.2727 434.563 81.9972 438.411 83.4366L438.761 82.5L439.112 81.5634C435.021 80.0331 430.613 79.2727 425.898 79.2727V80.2727ZM438.761 82.5L438.42 83.4398C442.287 84.8459 445.647 86.9657 448.512 89.8016L449.216 89.0909L449.919 88.3802C446.845 85.3373 443.236 83.0631 439.103 81.5602L438.761 82.5ZM449.216 89.0909L448.516 89.8052C451.398 92.6293 453.657 96.1966 455.279 100.532L456.216 100.182L457.153 99.8314C455.441 95.2579 453.033 91.4313 449.916 88.3766L449.216 89.0909ZM456.216 100.182L455.28 100.534C456.895 104.821 457.716 109.879 457.716 115.727H458.716H459.716C459.716 109.697 458.87 104.391 457.152 99.8293L456.216 100.182ZM458.716 115.727H457.716V121.045H458.716H459.716V115.727H458.716ZM458.716 121.045V120.045H399.761V121.045V122.045H458.716V121.045ZM399.761 121.045H400.761V109.045H399.761H398.761V121.045H399.761ZM399.761 109.045V110.045H440.489V109.045V108.045H399.761V109.045ZM440.489 109.045H441.489C441.489 106.108 440.849 103.465 439.542 101.146L438.67 101.636L437.799 102.127C438.917 104.11 439.489 106.407 439.489 109.045H440.489ZM438.67 101.636L439.542 101.146C438.24 98.8348 436.427 97.0215 434.116 95.7197L433.625 96.5909L433.134 97.4622C435.127 98.5846 436.677 100.135 437.799 102.127L438.67 101.636ZM433.625 96.5909L434.13 95.728C431.835 94.3833 429.185 93.7273 426.216 93.7273V94.7273V95.7273C428.883 95.7273 431.173 96.3136 433.12 97.4538L433.625 96.5909ZM426.216 94.7273V93.7273C423.116 93.7273 420.328 94.4484 417.883 95.9152L418.398 96.7727L418.912 97.6302C421.013 96.3698 423.437 95.7273 426.216 95.7273V94.7273ZM418.398 96.7727L417.887 95.9132C415.494 97.3361 413.611 99.267 412.252 101.693L413.125 102.182L413.998 102.67C415.184 100.551 416.817 98.876 418.909 97.6323L418.398 96.7727ZM413.125 102.182L412.255 101.688C410.893 104.088 410.203 106.756 410.171 109.671L411.17 109.682L412.17 109.693C412.199 107.092 412.811 104.76 413.995 102.675L413.125 102.182ZM411.17 109.682H410.17V121.091H411.17H412.17V109.682H411.17ZM411.17 121.091H410.17C410.17 124.668 410.83 127.814 412.187 130.497L413.08 130.045L413.972 129.594C412.784 127.247 412.17 124.423 412.17 121.091H411.17ZM413.08 130.045L412.192 130.505C413.579 133.184 415.544 135.267 418.08 136.73L418.58 135.864L419.079 134.997C416.888 133.733 415.186 131.938 413.967 129.585L413.08 130.045ZM418.58 135.864L418.08 136.73C420.622 138.196 423.604 138.909 426.989 138.909V137.909V136.909C423.888 136.909 421.265 136.258 419.079 134.997L418.58 135.864ZM426.989 137.909V138.909C429.234 138.909 431.314 138.593 433.219 137.947L432.898 137L432.577 136.053C430.906 136.619 429.046 136.909 426.989 136.909V137.909ZM432.898 137L433.219 137.947C435.134 137.298 436.793 136.316 438.178 134.997L437.489 134.273L436.799 133.549C435.639 134.653 434.237 135.49 432.577 136.053L432.898 137ZM437.489 134.273L438.178 134.997C439.567 133.674 440.617 132.06 441.333 130.173L440.398 129.818L439.463 129.464C438.845 131.091 437.956 132.447 436.799 133.549L437.489 134.273ZM440.398 129.818L440.332 130.816L458.241 131.998L458.307 131L458.373 130.002L440.464 128.82L440.398 129.818ZM458.307 131L457.328 130.793C456.454 134.934 454.666 138.534 451.964 141.613L452.716 142.273L453.468 142.932C456.402 139.587 458.342 135.673 459.285 131.207L458.307 131ZM452.716 142.273L451.964 141.614C449.292 144.664 445.821 147.063 441.523 148.8L441.898 149.727L442.272 150.654C446.823 148.815 450.565 146.246 453.468 142.932L452.716 142.273ZM441.898 149.727L441.526 148.799C437.273 150.5 432.328 151.364 426.67 151.364V152.364V153.364C432.528 153.364 437.734 152.47 442.269 150.656L441.898 149.727ZM484.443 147.818L483.93 148.677L483.936 148.68L484.443 147.818ZM472.625 135.091L471.732 135.54L471.734 135.544L472.625 135.091ZM472.67 97.5455L471.781 97.0883L471.78 97.0903L472.67 97.5455ZM484.534 84.8636L485.043 85.7243L485.047 85.722L484.534 84.8636ZM518.807 83.5909L519.242 82.6906L519.242 82.6906L518.807 83.5909ZM529.67 92.9091L528.838 93.4638L529.67 92.9091ZM534.08 107V108H535.131L535.078 106.95L534.08 107ZM515.807 107L514.818 107.146L514.944 108H515.807V107ZM511.716 98.5909L511.014 99.303L511.024 99.3127L511.716 98.5909ZM495.261 97.8182L495.849 98.6274L495.851 98.626L495.261 97.8182ZM490.034 127.455L489.102 127.817L489.105 127.824L490.034 127.455ZM495.261 134.591L495.851 133.783L495.851 133.783L495.261 134.591ZM509.08 135.682L508.626 134.79L508.62 134.794L509.08 135.682ZM513.489 131.727L512.659 131.169L512.657 131.173L513.489 131.727ZM515.807 125.409V124.409H514.944L514.818 125.263L515.807 125.409ZM534.08 125.409L535.078 125.466L535.138 124.409H534.08V125.409ZM529.716 139.5L528.874 138.96L528.873 138.961L529.716 139.5ZM519.034 148.955L518.587 148.06L518.587 148.06L519.034 148.955ZM502.898 152.364V151.364C495.889 151.364 489.92 149.88 484.95 146.956L484.443 147.818L483.936 148.68C489.269 151.817 495.603 153.364 502.898 153.364V152.364ZM484.443 147.818L484.956 146.96C480 143.998 476.19 139.897 473.516 134.638L472.625 135.091L471.734 135.544C474.575 141.133 478.644 145.517 483.93 148.677L484.443 147.818ZM472.625 135.091L473.518 134.642C470.872 129.378 469.534 123.294 469.534 116.364H468.534H467.534C467.534 123.555 468.924 129.955 471.732 135.54L472.625 135.091ZM468.534 116.364H469.534C469.534 109.342 470.887 103.23 473.561 98.0007L472.67 97.5455L471.78 97.0903C468.939 102.648 467.534 109.082 467.534 116.364H468.534ZM472.67 97.5455L473.56 98.0026C476.264 92.7416 480.089 88.6561 485.043 85.7243L484.534 84.8636L484.025 84.003C478.737 87.1318 474.653 91.5009 471.781 97.0883L472.67 97.5455ZM484.534 84.8636L485.047 85.722C489.987 82.7699 495.893 81.2727 502.807 81.2727V80.2727V79.2727C495.599 79.2727 489.324 80.8362 484.021 84.0052L484.534 84.8636ZM502.807 80.2727V81.2727C508.777 81.2727 513.956 82.3565 518.372 84.4912L518.807 83.5909L519.242 82.6906C514.506 80.4011 509.019 79.2727 502.807 79.2727V80.2727ZM518.807 83.5909L518.372 84.4912C522.796 86.6302 526.277 89.6209 528.838 93.4638L529.67 92.9091L530.503 92.3544C527.731 88.1972 523.969 84.9758 519.242 82.6906L518.807 83.5909ZM529.67 92.9091L528.838 93.4638C531.393 97.2959 532.816 101.814 533.081 107.05L534.08 107L535.078 106.95C534.798 101.398 533.281 96.5222 530.503 92.3544L529.67 92.9091ZM534.08 107V106H515.807V107V108H534.08V107ZM515.807 107L516.796 106.854C516.254 103.184 514.804 100.166 512.408 97.8691L511.716 98.5909L511.024 99.3127C513.052 101.258 514.33 103.847 514.818 107.146L515.807 107ZM511.716 98.5909L512.418 97.8789C510.02 95.5137 506.889 94.3636 503.125 94.3636V95.3636V96.3636C506.452 96.3636 509.049 97.3651 511.014 99.3029L511.716 98.5909ZM503.125 95.3636V94.3636C499.931 94.3636 497.1 95.2389 494.672 97.0104L495.261 97.8182L495.851 98.626C497.908 97.1248 500.319 96.3636 503.125 96.3636V95.3636ZM495.261 97.8182L494.674 97.009C492.279 98.7475 490.449 101.264 489.152 104.491L490.08 104.864L491.007 105.237C492.195 102.282 493.819 100.101 495.849 98.6274L495.261 97.8182ZM490.08 104.864L489.152 104.491C487.849 107.731 487.216 111.608 487.216 116.091H488.216H489.216C489.216 111.786 489.825 108.178 491.007 105.237L490.08 104.864ZM488.216 116.091H487.216C487.216 120.631 487.833 124.549 489.102 127.817L490.034 127.455L490.966 127.093C489.811 124.118 489.216 120.46 489.216 116.091H488.216ZM490.034 127.455L489.105 127.824C490.402 131.084 492.248 133.63 494.672 135.399L495.261 134.591L495.851 133.783C493.79 132.279 492.151 130.068 490.963 127.085L490.034 127.455ZM495.261 134.591L494.672 135.399C497.1 137.17 499.931 138.045 503.125 138.045V137.045V136.045C500.319 136.045 497.908 135.284 495.851 133.783L495.261 134.591ZM503.125 137.045V138.045C505.478 138.045 507.623 137.561 509.539 136.57L509.08 135.682L508.62 134.794C507.021 135.621 505.196 136.045 503.125 136.045V137.045ZM509.08 135.682L509.533 136.573C511.479 135.583 513.077 134.147 514.321 132.282L513.489 131.727L512.657 131.173C511.597 132.762 510.256 133.962 508.626 134.79L509.08 135.682ZM513.489 131.727L514.318 132.285C515.596 130.385 516.414 128.132 516.796 125.556L515.807 125.409L514.818 125.263C514.472 127.595 513.744 129.555 512.659 131.169L513.489 131.727ZM515.807 125.409V126.409H534.08V125.409V124.409H515.807V125.409ZM534.08 125.409L533.081 125.352C532.787 130.533 531.378 135.059 528.874 138.96L529.716 139.5L530.557 140.04C533.266 135.819 534.766 130.952 535.078 125.466L534.08 125.409ZM529.716 139.5L528.873 138.961C526.401 142.83 522.981 145.863 518.587 148.06L519.034 148.955L519.481 149.849C524.178 147.501 527.879 144.231 530.559 140.039L529.716 139.5ZM519.034 148.955L518.587 148.06C514.208 150.25 508.989 151.364 502.898 151.364V152.364V153.364C509.231 153.364 514.77 152.205 519.481 149.849L519.034 148.955ZM564.023 130.909L563.023 130.907L563.018 133.575L564.775 131.568L564.023 130.909ZM564.068 107.682V106.682H563.07L563.068 107.68L564.068 107.682ZM566.886 107.682V108.682H567.351L567.651 108.327L566.886 107.682ZM589.25 81.1818V80.1818H588.785L588.486 80.5369L589.25 81.1818ZM611.477 81.1818L612.237 81.8322L613.65 80.1818H611.477V81.1818ZM581.432 116.273V117.273H581.892L582.191 116.923L581.432 116.273ZM576.841 116.273V115.273H576.387L576.089 115.614L576.841 116.273ZM546.477 151H545.477V152H546.477V151ZM546.477 57.9091V56.9091H545.477V57.9091H546.477ZM565.841 57.9091H566.841V56.9091H565.841V57.9091ZM565.841 151V152H566.841V151H565.841ZM590.114 151L589.285 151.56L589.582 152H590.114V151ZM569.568 120.591L568.841 119.905L568.291 120.487L568.74 121.151L569.568 120.591ZM582.477 106.909L583.301 106.342L582.6 105.322L581.75 106.223L582.477 106.909ZM612.795 151V152H614.697L613.619 150.433L612.795 151ZM564.023 130.909L565.023 130.911L565.068 107.684L564.068 107.682L563.068 107.68L563.023 130.907L564.023 130.909ZM564.068 107.682V108.682H566.886V107.682V106.682H564.068V107.682ZM566.886 107.682L567.651 108.327L590.014 81.8268L589.25 81.1818L588.486 80.5369L566.122 107.037L566.886 107.682ZM589.25 81.1818V82.1818H611.477V81.1818V80.1818H589.25V81.1818ZM611.477 81.1818L610.718 80.5314L580.672 115.622L581.432 116.273L582.191 116.923L612.237 81.8322L611.477 81.1818ZM581.432 116.273V115.273H576.841V116.273V117.273H581.432V116.273ZM576.841 116.273L576.089 115.614L563.27 130.25L564.023 130.909L564.775 131.568L577.593 116.932L576.841 116.273ZM546.477 151H547.477V57.9091H546.477H545.477V151H546.477ZM546.477 57.9091V58.9091H565.841V57.9091V56.9091H546.477V57.9091ZM565.841 57.9091H564.841V151H565.841H566.841V57.9091H565.841ZM565.841 151V150H546.477V151V152H565.841V151ZM590.114 151L590.942 150.44L570.397 120.031L569.568 120.591L568.74 121.151L589.285 151.56L590.114 151ZM569.568 120.591L570.296 121.277L583.205 107.595L582.477 106.909L581.75 106.223L568.841 119.905L569.568 120.591ZM582.477 106.909L581.653 107.476L611.971 151.567L612.795 151L613.619 150.433L583.301 106.342L582.477 106.909ZM612.795 151V150H590.114V151V152H612.795V151ZM658.523 81.1818H659.523V80.1818H658.523V81.1818ZM658.523 95.7273V96.7273H659.523V95.7273H658.523ZM615.432 95.7273H614.432V96.7273H615.432V95.7273ZM615.432 81.1818V80.1818H614.432V81.1818H615.432ZM625.295 151H624.295V152H625.295V151ZM628.25 63.5454L627.392 63.0309L627.389 63.0367L628.25 63.5454ZM636.432 56.0454L635.997 55.1448L635.997 55.1448L636.432 56.0454ZM656.341 54.2273L656.159 55.2106L656.161 55.2109L656.341 54.2273ZM661.886 55.4545L662.859 55.6856L663.077 54.7678L662.174 54.4967L661.886 55.4545ZM658.432 70L658.127 70.9524L659.155 71.2815L659.405 70.2311L658.432 70ZM655.614 69.3182L655.423 70.2998L655.428 70.3007L655.614 69.3182ZM646.295 71L647.054 71.6523L647.061 71.6436L646.295 71ZM644.614 151V152H645.614V151H644.614ZM658.523 81.1818H657.523V95.7273H658.523H659.523V81.1818H658.523ZM658.523 95.7273V94.7273H615.432V95.7273V96.7273H658.523V95.7273ZM615.432 95.7273H616.432V81.1818H615.432H614.432V95.7273H615.432ZM615.432 81.1818V82.1818H658.523V81.1818V80.1818H615.432V81.1818ZM625.295 151H626.295V76.1364H625.295H624.295V151H625.295ZM625.295 76.1364H626.295C626.295 71.2011 627.256 67.193 629.111 64.0542L628.25 63.5454L627.389 63.0367C625.304 66.5645 624.295 70.9504 624.295 76.1364H625.295ZM628.25 63.5454L629.107 64.0599C631.009 60.8914 633.59 58.5268 636.866 56.9461L636.432 56.0454L635.997 55.1448C632.365 56.8974 629.491 59.5328 627.393 63.031L628.25 63.5454ZM636.432 56.0454L636.866 56.9461C640.167 55.3537 643.939 54.5454 648.205 54.5454V53.5454V52.5454C643.682 52.5454 639.606 53.4038 635.997 55.1448L636.432 56.0454ZM648.205 53.5454V54.5454C651.124 54.5454 653.774 54.769 656.159 55.2106L656.341 54.2273L656.523 53.244C653.998 52.7765 651.224 52.5454 648.205 52.5454V53.5454ZM656.341 54.2273L656.161 55.2109C658.638 55.664 660.442 56.0652 661.599 56.4124L661.886 55.4545L662.174 54.4967C660.907 54.1166 659.014 53.6996 656.521 53.2436L656.341 54.2273ZM661.886 55.4545L660.913 55.2235L657.459 69.7689L658.432 70L659.405 70.2311L662.859 55.6856L661.886 55.4545ZM658.432 70L658.737 69.0476C657.927 68.7886 656.945 68.5524 655.8 68.3356L655.614 69.3182L655.428 70.3007C656.524 70.5082 657.421 70.7265 658.127 70.9524L658.432 70ZM655.614 69.3182L655.805 68.3366C654.648 68.1118 653.463 68 652.25 68V69V70C653.34 70 654.397 70.1003 655.423 70.2998L655.614 69.3182ZM652.25 69V68C649.29 68 646.934 68.6866 645.53 70.3564L646.295 71L647.061 71.6436C647.899 70.6467 649.513 70 652.25 70V69ZM646.295 71L645.537 70.3478C644.21 71.8903 643.614 73.9867 643.614 76.5H644.614H645.614C645.614 74.286 646.138 72.7158 647.053 71.6522L646.295 71ZM644.614 76.5H643.614V151H644.614H645.614V76.5H644.614ZM644.614 151V150H625.295V151V152H644.614V151ZM715.125 121.273H714.125L714.125 121.282L715.125 121.273ZM715.125 81.1818V80.1818H714.125V81.1818H715.125ZM734.489 81.1818H735.489V80.1818H734.489V81.1818ZM734.489 151V152H735.489V151H734.489ZM715.898 151H714.898V152H715.898V151ZM715.898 138.318H716.898V137.318H715.898V138.318ZM715.17 138.318V137.318H714.484L714.237 137.959L715.17 138.318ZM707.307 148.182L706.746 147.354L706.743 147.356L707.307 148.182ZM681.67 148.727L682.184 147.869L682.184 147.869L681.67 148.727ZM673.352 139.682L672.459 140.132L672.462 140.137L673.352 139.682ZM670.352 125.636H669.352L669.352 125.642L670.352 125.636ZM670.352 81.1818V80.1818H669.352V81.1818H670.352ZM689.716 81.1818H690.716V80.1818H689.716V81.1818ZM689.716 122.182L688.716 122.182L688.716 122.189L689.716 122.182ZM693.034 131.955L693.773 131.281L693.773 131.281L693.034 131.955ZM708.352 133.955L708.815 134.841L708.826 134.835L708.352 133.955ZM713.261 129.136L712.404 128.622L712.398 128.631L713.261 129.136ZM715.125 121.273H716.125V81.1818H715.125H714.125V121.273H715.125ZM715.125 81.1818V82.1818H734.489V81.1818V80.1818H715.125V81.1818ZM734.489 81.1818H733.489V151H734.489H735.489V81.1818H734.489ZM734.489 151V150H715.898V151V152H734.489V151ZM715.898 151H716.898V138.318H715.898H714.898V151H715.898ZM715.898 138.318V137.318H715.17V138.318V139.318H715.898V138.318ZM715.17 138.318L714.237 137.959C712.736 141.857 710.245 144.982 706.746 147.354L707.307 148.182L707.868 149.01C711.702 146.412 714.454 142.961 716.104 138.678L715.17 138.318ZM707.307 148.182L706.743 147.356C703.302 149.707 699.069 150.909 693.989 150.909V151.909V152.909C699.393 152.909 704.039 151.626 707.871 149.007L707.307 148.182ZM693.989 151.909V150.909C689.479 150.909 685.555 149.886 682.184 147.869L681.67 148.727L681.157 149.585C684.877 151.811 689.165 152.909 693.989 152.909V151.909ZM681.67 148.727L682.184 147.869C678.81 145.85 676.163 142.979 674.243 139.226L673.352 139.682L672.462 140.137C674.542 144.202 677.44 147.362 681.157 149.585L681.67 148.727ZM673.352 139.682L674.245 139.232C672.36 135.49 671.382 130.968 671.352 125.631L670.352 125.636L669.352 125.642C669.383 131.214 670.405 136.055 672.459 140.132L673.352 139.682ZM670.352 125.636H671.352V81.1818H670.352H669.352V125.636H670.352ZM670.352 81.1818V82.1818H689.716V81.1818V80.1818H670.352V81.1818ZM689.716 81.1818H688.716V122.182H689.716H690.716V81.1818H689.716ZM689.716 122.182L688.716 122.189C688.748 126.488 689.906 130.006 692.295 132.628L693.034 131.955L693.773 131.281C691.799 129.115 690.745 126.118 690.716 122.174L689.716 122.182ZM693.034 131.955L692.295 132.628C694.692 135.259 697.9 136.545 701.807 136.545V135.545V134.545C698.38 134.545 695.74 133.438 693.773 131.281L693.034 131.955ZM701.807 135.545V136.545C704.298 136.545 706.639 135.978 708.815 134.841L708.352 133.955L707.889 133.068C706.005 134.053 703.982 134.545 701.807 134.545V135.545ZM708.352 133.955L708.826 134.835C711.029 133.652 712.795 131.911 714.124 129.642L713.261 129.136L712.398 128.631C711.243 130.605 709.737 132.076 707.879 133.074L708.352 133.955ZM713.261 129.136L714.119 129.651C715.508 127.335 716.157 124.521 716.125 121.263L715.125 121.273L714.125 121.282C714.154 124.267 713.56 126.695 712.404 128.622L713.261 129.136Z" fill="black" mask="url(#path-2-outside-1_1402_8)"/>
</svg>
